:SAMPLES-PER-SECOND 30
:FULLY-SPECIFIED
:DEGREES
50
root  44.2079 39.0776 28.2013 -38.5895 -83.7559 35.7184
RightUpLeg  -21.3459 -9.3546 -4.25038
RightLeg  4.42977 -5.10142 2.83235
RightFoot  0.604208 -0.687085 6.60503
RightToes  2.32829e-010 0 -3.6325e-017
Spine  10.1071 -1.82072 -6.14778
Spine1  6.12708 -3.0761 3.04262
HEad  -10.1449 2.28309 -2.29304
LeftShoulder1  8.6806 -12.5244 -47.2613
LeftArm  -3.07987 -11.04 -26.0874
LeftForeArm  22.5144 -26.9899 -4.59464
LeftHand  -0.244104 0.0205437 5.32207
RightShoulder  6.45465 9.89449 41.9158
RightArm  -2.99111 -23.3989 29.096
RightForeArm  11.2451 7.82695 7.45842
RightHand  -0.663119 -0.0643344 -14.4782
LeftUpLeg  10.5235 4.8948 -5.04255
LeftLeg  10.789 11.3236 -3.54453
LeftFoot  -18.6164 0.206113 1.50413
LeftToes  -2.63786e-011 3.77076e-011 -4.2586e-012
51
root  42.4517 38.6793 28.3752 -37.272 -83.0719 34.1648
RightUpLeg  -20.311 -6.88367 -5.75013
RightLeg  -4.62873 -9.04533 5.58676
RightFoot  -0.844065 -0.7102 7.67586
RightToes  2.32829e-010 0 -3.6325e-017
Spine  9.6865 -2.09169 -6.45282
Spine1  6.07674 -3.45159 3.72818
HEad  -10.1732 1.6697 -2.39871
LeftShoulder1  8.71459 -12.6574 -47.0524
LeftArm  -3.58134 -12.845 -26.5516
LeftForeArm  24.3351 -29.3313 -5.02549
LeftHand  -0.244104 0.0205437 5.32207
RightShoulder  6.34228 9.75953 41.5826
RightArm  -4.82341 -23.2252 28.7386
RightForeArm  12.4097 6.26309 6.88358
RightHand  -0.650551 0.125563 -13.7357
LeftUpLeg  13.979 5.22498 -4.75904
LeftLeg  10.5266 9.97187 -3.84915
LeftFoot  -20.7057 0.186006 0.75722
LeftToes  -2.63786e-011 3.77076e-011 -4.2586e-012
52
root  40.6245 38.2836 28.5176 -34.3441 -82.681 31.1569
RightUpLeg  -21.3419 -7.04607 -5.41617
RightLeg  -4.70051 -10.2784 5.96791
RightFoot  -2.25287 -0.663781 8.10479
RightToes  2.32829e-010 0 -3.6325e-017
Spine  9.08703 -2.32091 -6.35895
Spine1  6.28761 -3.84976 4.51743
HEad  -10.7639 1.59725 -2.48832
LeftShoulder1  8.7331 -12.7339 -46.9278
LeftArm  -4.18424 -13.8204 -27.1252
LeftForeArm  25.904 -31.4279 -5.43274
LeftHand  -0.244104 0.0205437 5.32207
RightShoulder  6.29125 9.71976 41.3556
RightArm  -6.03322 -22.6201 28.3182
RightForeArm  12.319 5.21277 6.46015
RightHand  -0.669642 0.271903 -13.7809
LeftUpLeg  16.9695 6.14288 -3.80908
LeftLeg  11.1279 8.05391 -3.76507
LeftFoot  -21.9795 0.125498 -0.0740333
LeftToes  -2.63786e-011 3.77076e-011 -4.2586e-012
53
root  38.7568 38.0396 28.6499 -25.8141 -82.5985 22.9051
RightUpLeg  -22.6856 -6.96016 -4.14833
RightLeg  -0.176273 -12.8517 5.18552
RightFoot  -0.145198 -0.519997 5.41709
RightToes  2.32829e-010 0 -3.6325e-017
Spine  8.23249 -2.69179 -5.08658
Spine1  6.81459 -4.46166 5.3383
HEad  -11.3354 1.76817 -2.97812
LeftShoulder1  8.75423 -12.7474 -47.0039
LeftArm  -4.65455 -13.5881 -27.548
LeftForeArm  27.1782 -33.3645 -5.83571
LeftHand  -0.244104 0.0205437 5.32207
RightShoulder  6.2475 9.64166 41.3086
RightArm  -6.93242 -21.6238 27.8222
RightForeArm  11.5214 4.86738 6.21384
RightHand  -0.719557 0.465512 -14.3239
LeftUpLeg  19.1751 8.08497 -1.65734
LeftLeg  12.4984 5.10468 -2.94807
LeftFoot  -21.9072 -0.00817442 -1.48771
LeftToes  -2.63786e-011 3.77076e-011 -4.2586e-012
54
root  36.7494 37.8698 28.8123 -11.9903 -82.64 9.14047
RightUpLeg  -24.6769 -9.4867 -0.784323
RightLeg  7.78886 -12.0548 2.74188
RightFoot  3.93902 -0.013527 0.370057
RightToes  2.32829e-010 0 -3.6325e-017
Spine  7.24688 -3.28284 -2.02536
Spine1  7.25225 -4.92573 5.18132
HEad  -11.6744 1.8268 -3.91244
LeftShoulder1  8.85512 -12.7972 -47.4081
LeftArm  -4.56889 -11.8419 -27.6318
LeftForeArm  28.2196 -34.8087 -6.14288
LeftHand  -0.244104 0.0205437 5.32207
RightShoulder  6.21944 9.54818 41.4259
RightArm  -7.9874 -20.694 27.3739
RightForeArm  10.4182 5.24286 6.01255
RightHand  -0.785932 0.810763 -14.7905
LeftUpLeg  21.0922 11.1043 1.8725
LeftLeg  15.1128 0.768697 -1.54729
LeftFoot  -21.0269 -0.303396 -5.10135
LeftToes  -2.63786e-011 3.77076e-011 -4.2586e-012
